<svg xmlns="http://www.w3.org/2000/svg" xmlns:xlink="http://www.w3.org/1999/xlink" id="Layer_1" x="0" y="0" version="1.1" viewBox="0 0 100 100" xml:space="preserve" style="enable-background:new 0 0 100 100"><style type="text/css">.st0{stroke-linecap:round;stroke-linejoin:round}.st0,.st1{fill:none;stroke:#d63369;stroke-width:3;stroke-miterlimit:10}.st2{fill:#d63369}</style><g id="Aleph"><polyline points="148.2 72.8 200.8 72.8 165.1 11.1" class="st0"/><polyline points="191.5 72.7 165.2 27.2 129.6 88.9" class="st0"/><polyline points="169.8 35.3 143.5 80.8 214.8 80.8" class="st0"/></g><g id="Aleph_2_"><path d="M54.8,11.1C68.2,34.3,81.6,57.5,95,80.7c-1.6,2.7-3.3,5.5-4.9,8.2c-26.8,0-53.7,0-80.5,0 c-1.5-2.7-3.1-5.4-4.6-8.1c13.4-23.2,26.8-46.5,40.3-69.7C48.4,11.1,51.6,11.1,54.8,11.1z" class="st1"/><polyline points="28.2 72.8 80.8 72.8 45.1 11.1" class="st1"/><polyline points="71.5 72.7 45.2 27.2 9.6 88.9" class="st1"/><polyline points="49.8 35.3 23.5 80.8 94.8 80.8" class="st1"/></g><polygon points="-70 14 -115 86 -25 86" class="st2"/></svg>